<?xml version="1.0" encoding="utf-8"?>
<!-- Generator: Adobe Illustrator 27.3.1, SVG Export Plug-In . SVG Version: 6.00 Build 0)  -->
<svg version="1.1" id="Layer_1" xmlns="http://www.w3.org/2000/svg" xmlns:xlink="http://www.w3.org/1999/xlink" x="0px" y="0px"
	 viewBox="0 0 924 243" style="enable-background:new 0 0 924 243;" xml:space="preserve">
<style type="text/css">
	.st0{fill:#C70039;}
	.st1{fill:#FFC300;}
</style>
<g>
	<path d="M410.97,172.06c0.85,5.92,1.38,11.92,2.66,17.75c0.81,3.69-0.01,5.68-3.41,7.2c-9.15,4.07-18.25,8.25-27.26,12.59
		c-2.72,1.31-4.44,0.85-6.24-1.43c-2.81-3.58-5.92-6.91-8.72-10.5c-0.78-0.99-1.07-2.47-1.29-3.77c-1.57-9.12-3.17-18.24-4.54-27.39
		c-0.87-5.85-1.26-11.78-2.04-17.64c-1.24-9.33-2.56-18.66-4.03-27.96c-0.2-1.29-1.26-2.64-2.27-3.58c-3.42-3.21-7.77-5.73-10.3-9.5
		c-2.32-3.45-3.22-8.1-3.89-12.35c-1.1-7.04-1.7-14.18-2.07-21.3c-0.1-1.99,0.9-4.44,2.19-6.04c17.5-21.7,41.19-29.35,68.06-29.45
		c18.58-0.07,32.32,9.42,43.39,23.18c4.78,5.94,4.55,13.77,4.05,20.99c-1.26,18.06-10.63,32.62-21.24,46.48
		c-2.39,3.12-5.36,5.78-8.43,9.04c1.17,1.41,2.19,3.12,3.64,4.31c9.63,7.84,19.44,15.46,28.99,23.39c3.6,2.99,6.73,6.56,9.87,10.05
		c0.56,0.62,0.56,2.49,0.04,3.23c-6.22,8.97-12.49,17.92-18.98,26.69c-2.86,3.87-5.44,1.56-7.76-1.06
		c-9.78-10.99-19.59-21.96-29.39-32.93C411.65,172.05,411.31,172.06,410.97,172.06z M453.11,168.88c-3.65-2.73-6.69-4.55-9.19-6.93
		c-10.11-9.65-20.11-19.41-30.01-29.27c-4.33-4.31-4.17-5.07,0.06-9.61c12.02-12.94,22.46-26.72,25.52-44.81
		c3.2-18.93-4.75-30.94-23.75-33.76c-13.68-2.03-27.13-0.8-40.29,4.21c-12.28,4.68-23.3,10.97-31.94,20.97
		c-1.26,1.46-2.34,3.82-2.19,5.65c0.57,6.94,1.74,13.84,2.57,20.76c0.38,3.15,2.07,3.44,4.42,2.26c2.67-1.33,5.24-2.86,7.98-4.37
		c1,6.48,1.92,12.57,2.9,18.65c1.69,10.49,3.55,20.96,5.11,31.47c2.29,15.46,4.32,30.97,6.64,46.42c0.14,0.96,2.2,2.6,2.83,2.38
		c8-2.78,15.94-5.77,23.79-8.96c0.91-0.37,1.76-2.36,1.66-3.51c-0.43-4.68-1.45-9.31-1.88-13.99c-0.7-7.46-1.1-14.95-1.63-22.43
		c6.31,6.62,11.61,13.75,17.16,20.68c7.01,8.76,14.22,17.37,21.37,26.02c1.42,1.71,2.99,2.11,4.43-0.05
		C443.42,183.49,448.17,176.32,453.11,168.88z M445.17,63.39c-0.55,5.96-0.49,11.44-1.69,16.62c-1.46,6.27-3.9,12.32-6.12,18.39
		c-1.06,2.91,0.64,6.88,4.11,8.5c3.51,1.63,3.97-1.63,4.58-3.4c2.34-6.71,5.07-13.43,6.17-20.38
		C453.36,75.91,452.49,68.52,445.17,63.39z M435.1,105.18c-0.57,0.02-1.15,0.03-1.72,0.05c-0.1,1.49-0.86,3.73-0.18,4.32
		c1.77,1.56,3.09,5.25,7.17,2.72C438.48,109.72,436.79,107.45,435.1,105.18z M429.47,124.75c0.53-0.35,1.05-0.7,1.58-1.06
		c-0.97-1.81-1.71-3.82-3.02-5.34c-0.56-0.65-2.29-0.29-3.49-0.39c0.28,1.05,0.26,2.34,0.89,3.1
		C426.58,122.45,428.1,123.54,429.47,124.75z M435.48,117.59c-1.78-1.95-3.57-3.9-5.82-6.37
		C429.02,115.22,430.61,117.04,435.48,117.59z"/>
	<path d="M861.47,163.26c-4.17,6.14-6.95,6.04-11.65-0.21c-2.26-3.01-4.78-5.82-8.09-9.82c-0.74,3.99-1.44,6.68-1.72,9.41
		c-0.74,7.11-1.43,14.23-1.87,21.36c-0.23,3.67-1.48,5.12-5.39,4.63c-9.04-1.13-18.14-1.81-27.19-2.86
		c-1.35-0.16-2.99-1.04-3.79-2.12c-3.96-5.35-7.85-10.77-11.38-16.42c-0.92-1.48-0.75-3.85-0.58-5.76
		c1.39-15.6,3.1-31.17,4.32-46.77c1.16-14.84,1.79-29.72,2.87-44.57c0.11-1.48,1.43-3.5,2.74-4.17c7.14-3.63,14.38-7.11,21.75-10.26
		c4.73-2.02,9.84-3.15,14.59-5.14c3.1-1.29,4.88-0.42,6.41,2.14c3.58,5.97,7.17,11.93,11.39,18.94c2.85-7,5.87-13.37,7.98-20.03
		c1.32-4.15,3.21-4.9,7.01-3.79c9.76,2.84,19.63,5.33,29.35,8.33c2.41,0.74,4.7,2.58,6.51,4.43c2.31,2.36,4.17,5.19,6.05,7.94
		c0.72,1.06,1.31,2.45,1.35,3.71c0.43,15.65,0.84,31.29,1.06,46.94c0.24,16.87,0.23,33.75,0.43,50.62c0.03,2.94-0.92,4.81-3.77,5.97
		c-11.22,4.59-22.38,9.34-33.56,14.02c-3.13,1.31-5.1,1.14-8.04-1.83c-5.58-5.63-8.57-11.2-6.17-19.09
		c0.46-1.52,0.02-3.32-0.06-4.98C862,163.66,861.66,163.47,861.47,163.26z M876.51,185.51c5.01-2.53,8.94-4.79,13.08-6.55
		c5.43-2.31,11.12-4.03,16.5-6.44c1.38-0.62,2.82-2.87,2.85-4.39c0.14-7.9-0.24-15.8-0.3-23.71c-0.14-21.76-0.35-43.51-0.21-65.27
		c0.03-4.8-1.7-6.55-6.22-7.45c-7.74-1.55-15.38-3.65-22.96-5.84c-4.09-1.18-6.53-0.51-8.06,3.81c-2.28,6.43-4.95,12.73-7.69,18.98
		c-1.04,2.38-2.73,4.48-4.73,7.67c-1.29-2.61-2.1-4-2.7-5.48c-2.87-7.18-5.65-14.39-8.53-21.56c-1.35-3.35-3.4-4.5-7.17-3
		c-8.04,3.2-16.31,5.81-24.35,8.99c-1.48,0.59-2.91,2.54-3.4,4.15c-0.83,2.72-1.01,5.67-1.25,8.54
		c-0.98,12.13-2.06,24.25-2.77,36.39c-1.02,17.43-1.68,34.88-2.65,52.32c-0.18,3.21,1.08,4.29,4.04,4.6
		c5.89,0.62,11.77,1.45,17.64,2.27c5.55,0.78,6.63-0.07,7.11-5.74c1.17-13.79,2.31-27.58,3.58-41.36c0.22-2.41,1.01-4.76,1.54-7.14
		c0.42-0.01,0.85-0.02,1.27-0.03c5.22,9.97,10.43,19.95,16.24,31.05c6.42-15.14,11.89-29.76,21.76-42.15
		C881.17,140.49,878.96,162.57,876.51,185.51z M801.67,175.88c0.34-2.32,0.71-4.04,0.82-5.77c0.57-8.94,1.04-17.88,1.61-26.81
		c1.26-20,2.33-40.02,3.97-59.99c0.49-5.91-2.57-9.12-6.78-13.54c-0.82,10.71-1.46,20.38-2.33,30.03
		c-1.67,18.73-3.3,37.46-5.3,56.15C792.8,163.88,794.3,170.48,801.67,175.88z M842.84,60.81c-2.9-6.03-4.09-7.05-7.07-5.91
		c-9.06,3.46-18.1,6.96-27.07,10.64c-1.1,0.45-2.62,2.83-2.4,3.1c1.11,1.41,2.58,2.73,4.21,3.47c0.86,0.39,2.33-0.4,3.47-0.81
		c4.42-1.57,8.81-3.21,13.21-4.81C832.39,64.6,837.59,62.72,842.84,60.81z M871.83,184.4c0.49-1.93,1.02-3.29,1.16-4.68
		c0.57-5.41,0.53-10.94,1.66-16.22c1.24-5.77-2.13-7.96-6.63-10.77c-0.44,1.99-0.93,3.5-1.08,5.04c-0.5,5.11-0.64,10.28-1.38,15.35
		C864.81,178.29,867.53,181.2,871.83,184.4z M859.64,86.4c1.1-2.09,1.95-3.47,2.59-4.95c2.21-5.16,4.33-10.36,6.51-15.54
		c1.81-4.31,0.85-6.8-4.15-9.59c-2.21,5.34-3.98,10.86-6.71,15.86C855.03,77.35,857.21,81.32,859.64,86.4z M869.02,52.6
		c1.94,5.21,5.26,7.53,9.53,8.78c3.78,1.1,7.53,2.34,11.36,3.27c4.3,1.05,8.67,1.82,13.01,2.71c0.28-0.56,0.56-1.11,0.83-1.67
		c-2.11-1.74-3.95-4.31-6.37-5.08C888.29,57.7,879.02,55.37,869.02,52.6z M870.2,143.89c-0.54,0.33-1.08,0.65-1.62,0.98
		c1.66,2.62,3.31,5.25,5.55,8.8C876.5,147.38,871.86,146.52,870.2,143.89z"/>
	<path d="M90.39,96.53c-3.35-1.77-6.21-3.28-9.07-4.79c-0.46,0.43-0.93,0.87-1.39,1.3c0.91,2.92,1.44,6.04,2.79,8.73
		c4.97,9.88,10.12,19.69,15.39,29.42c9.43,17.39,13.68,35.36,4.32,53.97c-7.97,15.86-23.28,27.21-45.02,25.6
		c-16.66-1.23-28.97-9.73-39.82-21.4c-2.77-2.98-3.13-5.72-1.6-9.82c4.87-13.12,12.6-24.14,22.53-33.78
		c0.52-0.5,1.22-0.82,2.15-1.43c4.61,6.9,6.5,16.23,17.59,18.12c-0.48-2.6-0.41-4.88-1.31-6.67c-2.79-5.56-5.99-10.91-8.95-16.39
		c-7.92-14.67-15.94-29.29-23.63-44.08c-5.58-10.74-3.6-21,3.53-30.27c14.77-19.2,34.3-28.34,58.46-25.01
		c7.21,0.99,14.02,5.25,20.84,8.4c1.06,0.49,1.8,3.18,1.57,4.67c-1.3,8.09-2.16,16.4-4.76,24.09c-1.78,5.26-6.09,9.68-9.39,14.39
		C93.35,93.41,91.72,95,90.39,96.53z M28.93,163.31c-2.84,5.92-5.58,11.91-8.57,17.76c-1.43,2.81-0.83,5.08,1.23,6.99
		c11.47,10.66,23.73,19.26,40.64,18.41c11.2-0.57,21-4.11,28.62-12.04c10.03-10.44,7.88-23.06,2.81-34.53
		c-8.39-19.01-18.14-37.43-27.33-56.09c-3.22-6.55-3.07-9.55,1.96-13.71c2.2-1.82,5.44-3.22,8.24-3.29c4.01-0.1,8.06,1.2,12.48,1.97
		c1.33-7.53,2.96-15.52,3.98-23.59c0.18-1.44-1.84-3.98-3.43-4.67c-6.24-2.69-12.65-5.05-19.12-7.15
		c-10.55-3.42-28.63-0.9-35.45,10.89c-0.82,1.42-2.26,2.45-3.31,3.75c-4.5,5.58-7.55,11.93-4.98,18.96
		c3.31,9.08,7.18,18.03,11.67,26.6c6.89,13.16,14.57,25.91,21.78,38.9c2.19,3.95,2.63,7.95,0.96,12.57
		c-3.42,9.52-14.62,13.5-22.55,7.3C35.37,169.85,32.61,166.8,28.93,163.31z M63.33,46.92c1.2,0.38,2.15,0.65,3.09,0.97
		c8.03,2.76,16.22,5.12,24.02,8.42c6.08,2.57,5.87,3.1,10.12-2.09c0.65-0.79,1.18-1.69,1.69-2.43
		C97.47,43.97,70.07,42.13,63.33,46.92z M54.48,166.71c-6.65-1.62-10.69-5.58-13.5-11.06c-0.49-0.96-1.53-1.63-2.32-2.43
		c-1.78,2.58-5.4,5.47-5.03,7.68C35.17,169.93,47.39,173.36,54.48,166.71z M96.16,153.04c0.49,0.05,0.97,0.1,1.46,0.14
		c0.94-1.94,3.08-4.26,2.6-5.75c-1.69-5.35-4.27-10.43-6.51-15.61c-0.56-0.04-1.12-0.08-1.68-0.11c-1.05,2.09-3.45,4.63-2.92,6.18
		C90.9,143.14,93.73,148.02,96.16,153.04z M87.41,122.43c-5.5,2.41-5.61,4.9-0.64,9.49C90.72,128.73,90.83,127.55,87.41,122.43z
		 M80.92,121.3c2.6-1.71,3.92-3.84,2.18-6.74c-0.26-0.43-2.23-0.46-2.83,0.03C77.36,116.97,78.49,119.19,80.92,121.3z M93.66,83.12
		c0.64,0.31,1.29,0.63,1.93,0.94c1.37-2.24,2.75-4.49,4.12-6.73c-0.67-0.38-1.33-0.76-2-1.14C96.37,78.5,95.01,80.81,93.66,83.12z"
		/>
	<path d="M629.25,114.31c2.91-2.62,5.37-4.76,7.76-7c6.65-6.24,13.29-12.49,19.89-18.78c2.52-2.4,4.28-2.22,5.96,1.04
		c3.05,5.93,6.28,11.76,9.6,17.53c1.87,3.25,1.37,5.83-1.6,7.89c-5.23,3.64-10.57,7.13-15.82,10.75c-4.21,2.91-8.35,5.93-13.04,9.27
		c3.54,4.13,6.72,7.95,10.01,11.67c8.77,9.9,17.6,19.74,26.38,29.64c1.98,2.23,2.39,4.1-0.47,6.37
		c-6.96,5.54-13.69,11.38-20.39,17.24c-3.98,3.48-7.65,7.32-11.62,10.83c-2.26,2-3.77,0.69-4.92-1.6
		c-4.08-8.14-8.16-16.28-12.38-24.36c-1.49-2.85-3.35-5.51-5.85-8.24c1.39,8.55-3.15,14-7.84,19.97c-2.66,3.39-4.52,4.95-8.83,4.77
		c-8.81-0.36-17.64-0.07-26.46,0.03c-2.72,0.03-5.01-0.36-5-3.74c0.03-12.62-0.48-25.27,0.31-37.84
		c1.33-21.08,3.12-42.15,5.48-63.14c0.95-8.46,7.47-14.29,13.83-19.41c1.56-1.25,4.69-0.67,7.11-0.71
		c8.52-0.15,17.05-0.23,25.57-0.3c4.96-0.04,5.2,0.58,4.56,5.69c-1.25,9.95-2.18,19.94-3.21,29.92
		C628.28,112.22,628.61,112.66,629.25,114.31z M625.9,120.41c-0.27-2.05-0.69-3.5-0.61-4.91c0.6-10.29,1.21-20.59,2.02-30.87
		c0.29-3.64-0.95-4.9-4.58-4.72c-6.82,0.34-13.66,0.43-20.49,0.48c-6,0.05-7.04,1.07-7.24,7.15c-0.84,25.82-1.76,51.63-2.58,77.45
		c-0.17,5.46-0.09,10.94-0.09,16.4c0,2.47,0.79,3.85,3.76,3.75c5.62-0.2,11.26-0.09,16.89,0.1c3.26,0.11,4.44-1.12,4.8-4.44
		c0.75-6.94,2.02-13.84,3.17-20.73c0.55-3.32,1.31-6.61,2.23-11.21c2.06,2.43,3.49,3.74,4.45,5.34c2.04,3.38,3.74,6.96,5.74,10.36
		c5.77,9.82,11.63,19.58,17.44,29.38c1.15,1.94,2.42,4.01,4.89,1.82c6.09-5.4,12.04-10.94,18.33-16.69
		c-1.79-2.18-3.53-4.45-5.43-6.58c-10-11.25-20.08-22.45-30.06-33.71c-3.55-4-3.41-4.39,1.13-7.53c8.61-5.97,17.25-11.9,25.75-18.02
		c1.26-0.91,2.88-3.27,2.5-4.16c-2.42-5.63-5.37-11.03-8.36-16.93C647.19,100.61,639.46,113.43,625.9,120.41z M579.14,193.7
		c6.83-4.67,9.3-9.77,9.47-17.25c0.62-27.34,1.35-54.69,2.02-82.03c0.06-2.29,0.01-4.58,0.01-7.41c-4.96,2.34-6.15,5.8-6.48,9.74
		c-0.75,9.22-1.04,18.5-2.31,27.64c-2.78,20.1-3.42,40.25-2.73,60.49C579.22,187.55,579.14,190.22,579.14,193.7z"/>
	<path d="M120.92,146.33c0.06-22.57,3.42-44.63,9.22-66.27c4.54-16.94,15.54-29.39,30.13-38.62c4.93-3.12,10.37-5.76,15.93-7.51
		c12.38-3.89,23.04,1,28.88,12.62c5.1,10.15,6.01,21.25,7.01,32.3c1.81,19.86-0.85,39.36-4.26,58.87
		c-2.59,14.84-6.47,29.29-15.3,41.49c-5.97,8.23-13.46,15.65-21.36,22.12c-8.09,6.62-24.45,4.98-34.74-3.72
		c-8.13-6.87-11.29-16.45-12.96-26.42C122.09,163,121.73,154.62,120.92,146.33z M126.12,144.21c0,2.59-0.07,5.18,0.01,7.76
		c0.4,13.12,1.07,26.32,8.68,37.64c8.45,12.58,30.35,18.66,40.72,0.78c5.46-9.41,9.32-20.31,11.33-31.03
		c3.02-16.04,4.41-32.47,5.32-48.8c0.91-16.29-1.54-32.18-7.42-47.76c-5.52-14.64-21.15-16.31-31.99-10.15
		c-10.72,6.09-14.58,16.71-17.66,27.2C128.99,100.78,125.92,122.31,126.12,144.21z M196.4,84.08c2.56-2.38,4.96-4.9,7.67-7.05
		c2.56-2.02,3.68-4.26,2.81-7.49c-1.68-6.29-2.9-12.74-4.98-18.9c-3.46-10.3-11.06-14.93-21.82-13.99
		c-6.53,0.57-13.07,3.83-15.51,7.83c0.63,0.14,1.19,0.33,1.76,0.38c9.65,0.98,17.8,4.53,21.56,14.16
		C191.02,67.04,193.46,75.34,196.4,84.08z M207.34,80.37c-10.09,5.54-13.71,13.88-9.36,21.62C207.96,95.33,210.44,89.6,207.34,80.37
		z M197.92,118.17c7.12-3.23,10.71-9.77,9.23-16.81C198.33,104.71,195.79,109.34,197.92,118.17z M203.11,133.23
		c-3.89,3.64-9.26,6.23-9.41,13.92C198.88,142.82,203.57,139.8,203.11,133.23z M204.73,118.35c-3.54,4.66-9.38,6.96-8.83,13.79
		C201.04,130.31,205.19,124.16,204.73,118.35z M187.86,165.1c5.57-1,9.97-5.47,10.1-9.56C194.69,158.63,191.74,161.42,187.86,165.1z
		"/>
	<path d="M686.92,146.48c0.16-22.56,3.44-44.61,9.22-66.26c4.53-16.97,15.51-29.37,30.02-38.72c4.28-2.76,8.93-5.26,13.74-6.84
		c18.12-5.97,29.45,2.96,34.03,18.93c3.88,13.53,5.33,27.46,4.74,41.5c-0.95,22.35-3.48,44.47-10.83,65.8
		c-5.73,16.63-16.27,29.7-30.02,40.28c-7.98,6.15-24.12,5.33-34.55-2.87c-8.73-6.87-11.93-16.71-13.75-26.95
		C688.08,163.16,687.75,154.77,686.92,146.48z M692.12,144.8c0,2.28-0.07,4.57,0.01,6.85c0.46,12.95,1.09,25.9,8.32,37.3
		c5.42,8.55,13.66,12.6,23.48,12.33c9.55-0.26,15.95-5.95,19.9-14.46c5.8-12.48,9.35-25.57,11.11-39.21
		c2.77-21.42,5.52-42.91,1.56-64.39c-1.55-8.4-4.22-16.86-7.95-24.53c-4.9-10.09-17.66-12.2-28.66-6.61
		c-11.42,5.81-15.48,16.7-18.65,27.47C694.99,100.75,691.87,122.59,692.12,144.8z M730.44,43.94c0.5,0.39,0.72,0.72,0.97,0.73
		c13.78,0.87,21.93,8.37,25.49,21.42c1.61,5.92,3.36,11.8,5.22,18.28c2.98-2.78,5.37-5.32,8.09-7.44c2.63-2.04,3.54-4.38,2.71-7.54
		c-1.58-6.01-2.71-12.18-4.74-18.03C762.45,34.92,742.77,31.02,730.44,43.94z M773.67,80.21c-10.39,5.71-13.23,12-10.06,21.68
		C772.99,97.31,775.74,91.52,773.67,80.21z M763.76,118.43c7.62-3.96,10.88-9.97,9.54-17.14
		C765.11,104.21,762.33,109.07,763.76,118.43z M759.62,146.14c6.51-2.68,10.62-8.57,9.31-13.58
		C765.25,136.69,760.24,139.37,759.62,146.14z M762.03,132.29c5.76-2.8,9.49-8.77,8.14-13.36
		C767.08,123.25,761.35,125.36,762.03,132.29z M754.92,164.24c0.47,0.43,0.94,0.86,1.41,1.28c2.77-2.87,6.92-4.53,8.33-8.97
		C761.23,159.26,758.08,161.75,754.92,164.24z"/>
	<path d="M475.86,146.55c0.18-22.56,3.42-44.62,9.21-66.27c4.58-17.13,15.65-29.63,30.37-38.98c4.18-2.65,8.67-5.09,13.34-6.64
		c18.39-6.09,30.43,3.15,34.13,19.78c2.69,12.08,4.62,24.6,4.62,36.93c-0.01,23.57-3.03,46.92-10.73,69.43
		c-5.69,16.65-16.25,29.71-29.97,40.32c-7.96,6.15-24.13,5.38-34.56-2.79c-8.74-6.85-11.97-16.68-13.8-26.92
		C477.01,163.23,476.69,154.85,475.86,146.55z M480.3,144.67c1,9.5,1.54,19.08,3.12,28.49c1.61,9.58,5.15,18.28,14.12,23.9
		c12.13,7.6,26.97,5.3,33.22-6.96c4.91-9.64,9.1-20.1,11.07-30.67c2.99-16.05,4.4-32.47,5.32-48.81
		c0.92-16.29-1.54-32.17-7.39-47.76c-5.47-14.59-21.11-16.36-31.96-10.24c-10.77,6.07-14.62,16.71-17.69,27.17
		C483.94,100.85,480.8,122.54,480.3,144.67z M519.63,44.13c0.23,0.18,0.45,0.52,0.69,0.53c13.77,0.86,21.95,8.34,25.51,21.39
		c1.62,5.93,3.37,11.82,5.23,18.32c3.65-3.39,6.88-6.33,10.01-9.38c0.59-0.57,1.14-1.65,1.03-2.41
		c-1.59-11.63-3.01-23.44-12.17-32.11C542.79,33.73,525.44,35.98,519.63,44.13z M552.32,102.07c9.8-5.12,13.32-13.05,9.86-21.72
		C551.92,86.44,549.99,90.57,552.32,102.07z M552.52,117.96c5.77-1.28,12.93-11.16,9.47-16.79
		C553.24,105.37,551.46,108.52,552.52,117.96z M558.1,132.24c-3.88,4.5-9.19,7.13-9.38,14.09
		C555.45,142.8,558.91,137.82,558.1,132.24z M559.74,119.27c-7.73,5.65-9.06,7.73-8.39,12.79
		C556.18,129.85,559.9,124.38,559.74,119.27z M553.95,157.34c-0.52-0.46-1.05-0.92-1.57-1.39c-2.87,2.72-6.56,4.75-8.17,8.55
		c0.43,0.38,0.86,0.75,1.29,1.13C548.31,162.87,551.13,160.1,553.95,157.34z"/>
	<path d="M301.08,93.25c8.54,3.88,17.23,6.85,21.8,15.46c7.09,13.35,7.11,26.82,1.4,40.81c-8.9,21.81-26.17,32.27-48.32,33.79
		c-12.19,0.83-24.49-2.41-35.21-10.25c-5.68-4.16-7.89-8.87-8.74-15.31c-3.01-22.87-6.29-45.71-9.4-68.56
		c-1.14-8.41-2.04-16.85-3.13-25.27c-0.7-5.4,0.55-7.53,5.39-10.26c8.36-4.71,17.44-7.78,26.8-8.03
		c12.95-0.34,25.95-0.02,37.65,7.75c11.47,7.62,18.36,23.84,12.33,37.93C301.44,91.84,301.32,92.44,301.08,93.25z M274.6,180.09
		c5.46-1.53,11.36-3.34,17.34-4.82c19.28-4.78,37.8-34.25,31.56-54.6c-3.65-11.91-11.55-20.9-23.94-21.94
		c-5.55-0.47-5.93-1.14-3.46-6.02c0.48-0.95,1.05-1.85,1.5-2.81c6.19-12.93-1.47-30.02-15.13-34.49c-7.04-2.3-13.89-1.24-20.68,0.25
		c-8.71,1.91-17.67,3.56-24.87,9.41c-1.17,0.95-2.04,3.29-1.81,4.8c1.45,9.45,3.59,18.8,4.87,28.26c2.96,21.95,5.48,43.95,8.37,65.9
		c0.59,4.47,1.38,9.61,6.38,11.26C260.87,177.34,267.34,178.39,274.6,180.09z M224.43,64.14c0,1.87-0.14,3.36,0.02,4.82
		c0.88,7.83,1.9,15.65,2.74,23.48c1.18,10.99,2.48,21.98,3.31,33c0.72,9.56,1.2,10.62,9.67,12.78c-0.25-3.16-0.44-6.11-0.74-9.04
		c-0.86-8.45-1.54-16.93-2.73-25.34c-1.61-11.39-3.65-22.72-5.46-34.08C230.7,66.25,228.59,64.58,224.43,64.14z M259.17,51.3
		c-0.17-0.52-0.35-1.05-0.52-1.57c-11.53-0.14-22.41,2.34-33.16,8.58c3.13,2.62,5.37,4.6,9.26,2.86c6.03-2.7,12.24-5,18.38-7.47
		C255.13,52.89,257.15,52.1,259.17,51.3z M241.25,153.66c1.48-7.75-1.82-12.63-7.74-12.4C232.64,148.47,234,150.72,241.25,153.66z
		 M236.11,154.64c-0.95,5.19,0.95,7.27,7.33,7.98C243.3,157.6,239.08,156.86,236.11,154.64z"/>
	<path d="M87.84,210.83c-5.61,9.3-43.89,20.57-51.16,14.74c4.78-0.95,8.76-1.73,14.06-2.78c-8.96-3.6-19.15-2.51-24.57-12.79
		C47.16,220.65,67.4,223.31,87.84,210.83z"/>
	<path d="M431.13,31.34c14.44,6.48,21.39,20.14,31.23,32.47c-1.51-11.35-7.03-19.8-13.44-28.36c10.78,3.16,20.83,32.3,16.82,51.92
		c-0.72-6.5-1.45-13-2.1-18.81c-1.92-1.42-3.9-2.22-4.84-3.68c-7.66-11.93-16-23.25-27.01-32.37
		C431.47,32.24,431.35,31.73,431.13,31.34z"/>
	<path d="M485.47,60.35c-0.67-1.42-0.97-2.08-1.47-3.14c-0.96,3.28-1.67,5.68-2.58,8.77c-2.93-7.42,5.87-31.34,13.71-36.53
		c-3.3,7.62-6.13,14.16-8.96,20.7c13.18-18.12,21-24.22,27-19.39C498.61,35.27,491.67,46.78,485.47,60.35z"/>
	<path d="M692.64,65.25c-2.25-9.2,6.41-31.51,13.5-35.53c-3.22,7.32-6.07,13.79-8.91,20.27c0.18,0.07,0.36,0.14,0.54,0.21
		c3.59-4.65,6.96-9.49,10.82-13.91c5.72-6.56,11.24-8.59,15.91-5.7c-14.61,4.7-21.79,16-28.03,30.01c-0.56-1.47-0.91-2.38-1.38-3.59
		C694.14,60.2,693.39,62.72,692.64,65.25z"/>
	<path d="M128.72,58.56c-0.71,2.25-1.42,4.5-2.35,7.45c-2.7-7.62,5.63-30.52,13.36-35.55c-2.85,6.53-5.7,13.07-8.56,19.6
		c0.18,0.07,0.36,0.13,0.55,0.2c3.58-4.66,6.95-9.49,10.79-13.93c5.69-6.58,11.24-8.64,15.02-6.22c-4.43,2.9-9.71,5.1-13.16,8.94
		c-4.9,5.45-8.44,12.13-12.6,18.25c-0.46,0.68-1.19,1.18-1.79,1.77C129.56,58.89,129.14,58.72,128.72,58.56z"/>
	<path d="M398.29,218.76c-1.4,0.83-2.79,1.69-4.2,2.5c-1.44,0.83-2.91,1.62-4.72,2.62c0.88,1.06,1.63,1.95,2.37,2.85
		c-0.16,0.28-0.31,0.56-0.47,0.84c-2.77-0.99-6.28-1.26-8.14-3.15c-2.71-2.76-4.83-2.23-7.66-0.97c-2.08,0.93-4.33,1.5-6.5,2.24
		c-0.19-0.39-0.37-0.78-0.56-1.17c2.48-1.51,4.97-3.02,8-4.86c-2.46-2.7-4.69-5.15-6.93-7.61c0.26-0.31,0.52-0.63,0.77-0.94
		c1.95,1.44,3.98,2.81,5.85,4.35c2.34,1.93,4.55,2.43,7.48,0.96c6.36-3.2,12.88-6.09,19.36-9.05c1.28-0.59,2.69-0.92,4.37-0.67
		c-6.81,6.17-15.73,8.6-23.63,13.35c2.39,4.02,4.84,0.58,6.97,0.23c2.46-0.4,4.79-1.6,7.18-2.46
		C398,218.13,398.15,218.44,398.29,218.76z"/>
	<path d="M883.26,224.51c-7.21,1.55-17.43-7.5-17.26-15.18c4.73,1.28,9.25,2.91,13.91,3.65c5.06,0.8,10.26,1.15,15.37,0.96
		c2.65-0.1,5.23-1.78,8.64-3.04c-9.64,11.76-21.39,4.7-32.04,4.47c-0.15,0.37-0.3,0.74-0.45,1.11
		C875.24,219.06,879.05,221.65,883.26,224.51z"/>
	<path d="M853.23,188.14c12.28,14.79,27.97,19.37,47.22,16.04c-2.28,1.31-4.42,3.26-6.88,3.82c-8.98,2.03-17.4-0.75-25.61-4
		c-3.5-1.38-6.9-3.14-10.11-5.12C853.26,196.04,851.8,191.9,853.23,188.14z"/>
	<path d="M593.37,211c9.6,2.66,17.51,1.44,23.99-5.15c1.78-1.81,3.07-4.11,4.71-6.07c0.93-1.11,2.13-2,3.21-2.98
		c1.17,1.4,3.04,2.64,3.39,4.22c1.12,5.08-3.07,11.95-8.84,15.23c-1.13,0.64-2.4,1.05-4.02,1.21c5.36-5,10.19-10.12,9.48-17.91
		C618.68,213.56,600.93,219.56,593.37,211z"/>
	<path d="M808.92,42.87c-14.72,12.85-16.46,30.03-19.04,46.96C783.19,78.5,796.81,43.03,808.92,42.87z"/>
	<path d="M793.89,182.05c3.79,6.9,7.72,12.74,14.7,15.75c7.13,3.08,13.82,2.92,20.87-3.27c-4.36,9.53-12.78,11.07-23.75,5.72
		C796.45,195.71,790.9,187.87,793.89,182.05z"/>
	<path d="M290.68,42.46c2.18,1.43,4.93,2.42,6.44,4.38c6,7.74,11.99,15.54,17.21,23.81c3.02,4.78,1.04,9.56-3.26,10.96
		c3.17-8.82-2.2-15.1-6.7-21.33c-4.29-5.94-9.43-11.27-14.2-16.86C290.34,43.09,290.51,42.77,290.68,42.46z"/>
	<path d="M247.25,202.47c-15.58-5.05-32.38-35.19-24.09-43.6c-2.45,16.98,10.4,26.01,19.08,37.14c1.62,2.08,4.15,3.44,6.27,5.13
		C248.09,201.58,247.67,202.03,247.25,202.47z"/>
	<path d="M436.79,140.25c5.46-7.82,10.91-15.63,16.37-23.45c0.42,0.26,0.84,0.52,1.26,0.78c-2.48,3.95-5.03,7.85-7.41,11.85
		c-4.9,8.25-5.29,5.83,0.53,13.59c2.37,3.16,4.81,6.28,7.01,9.56c0.71,1.07,0.73,2.6,1.07,3.92c-1.34-0.63-3.15-0.91-3.95-1.96
		c-3.58-4.7-6.87-9.61-10.43-14.69c-1.07,0.51-2.08,1-3.1,1.48C437.68,140.97,437.23,140.61,436.79,140.25z"/>
	<path d="M374.29,30.76c-4.28,2.44-7.89,3.83-10.65,6.21c-8.16,7-15.96,14.41-23.97,21.57c-0.81,0.72-2.12,0.89-3.2,1.31
		c0.08-1.12-0.3-2.65,0.29-3.31c9.82-10.87,20.35-20.86,34.48-26.05C371.72,30.31,372.37,30.57,374.29,30.76z"/>
	<path d="M841.19,205.14c-1.42,4.79-5.37,6.68-9.22,7.02c-11.8,1.04-22.72-2.76-33.24-7.69c-1-0.47-1.59-1.8-2.08-3.16
		C811.25,204.72,825.02,214.83,841.19,205.14z"/>
	<path d="M109.07,194.54c1.4,5.05-0.45,9.81-4.02,12.56c-8.49,6.56-17.67,12.23-26.62,18.19c-0.52,0.35-1.41,0.14-2.66-0.79
		c4.54-3.03,9.16-5.95,13.6-9.13c4.8-3.43,9.81-6.72,14-10.81C105.93,202.08,107.09,198.17,109.07,194.54z"/>
	<path d="M636.61,93.72c2.67-13.55,5.35-27.11,8.04-40.76C648.38,56.31,642.82,87.28,636.61,93.72z"/>
	<path d="M126.12,213.18c14.47,5.56,28.8,2.81,44.17,2.52C157.46,222.31,128.73,220.73,126.12,213.18z"/>
	<path d="M481.44,214.51c7.03,0.67,13.99,1.59,20.98,1.92c7.05,0.33,14.13,0.07,20.63,0.07
		C515.78,222.27,484.06,220.76,481.44,214.51z"/>
	<path d="M660.44,140.05c5.35,6.02,10.32,11.62,16.05,18.06c-8.75-3.88-11.75-13.58-20.71-16c-0.16-1.74-0.38-4.17-0.64-7
		c3.73,3.22,5.56-0.09,7.93-2.24c1.75-1.58,3.83-2.79,5.77-4.17c0.38,0.45,0.76,0.91,1.14,1.36
		C666.93,133.24,663.89,136.43,660.44,140.05z"/>
	<path d="M735.86,215.67c-11.96,6.76-41.63,5.02-43.48-2.3C706.35,218.6,720.62,216.14,735.86,215.67z"/>
	<path d="M609.26,65.92c-12.15-5.05-29.51,10.17-34.16,23.16c-2.34-5.97,4.56-15.59,16.73-23.35
		C599.16,61.05,604.49,60.89,609.26,65.92z"/>
	<path d="M423.45,195.74c0.89,1.03,1.85,2,2.67,3.09c3.8,5.09,7.4,10.33,11.38,15.27c3.72,4.62,8.01,8.52,14.96,6.56
		c-2.64,2.61-5.51,3.98-8.72,2.01c-3.05-1.87-6.33-3.81-8.55-6.51c-4.22-5.12-7.79-10.78-11.54-16.28c-0.68-0.99-0.9-2.29-1.33-3.45
		C422.69,196.21,423.07,195.98,423.45,195.74z"/>
	<path d="M235.99,180.29c11.76,4.82,23.61,9.69,35.77,14.68C264.54,197.62,238.35,186.53,235.99,180.29z"/>
	<path d="M280.36,201.79c-12.13,3.95-35.03-3.81-35.01-11.16c5.51,2.51,10.87,5.54,16.61,7.4
		C267.61,199.84,273.65,200.47,280.36,201.79z"/>
	<path d="M112.6,53.75c-1.98-15.97-12.96-19.56-25.82-20.74c4.25-3.69,11.06-2.99,17.88,1.66C112.8,40.24,115.45,45.95,112.6,53.75z
		"/>
	<path d="M146.92,225.94c11.58-2.97,23.29-5.98,34.27-8.8C178.34,223.18,154.41,229.9,146.92,225.94z"/>
	<path d="M712.55,226.05c12.04-3.1,23.78-6.12,34.77-8.96C744.79,222.85,722,229.53,712.55,226.05z"/>
	<path d="M536.5,217.04c-4.48,6.34-25.69,12.38-35.04,9.03C513.49,222.97,525.24,219.94,536.5,217.04z"/>
	<path d="M35.55,137.82c-7.52-8.87-15.03-17.74-22.55-26.61c4.25-0.4,21.99,20.56,23.54,25.77
		C36.21,137.25,35.88,137.54,35.55,137.82z"/>
	<path d="M123.91,198.25c6.95,11.35,18.16,13.7,30.03,14.93c-7.92,2.45-15.05,0.64-21.71-3.56
		C128.08,207.01,124.51,203.82,123.91,198.25z"/>
	<path d="M509.04,213.01c-11.22,4.7-31.25-5.48-29.71-15.75C485.83,209.84,497.22,211.77,509.04,213.01z"/>
	<path d="M78.89,25.05c6.91-5.11,25.7-0.13,32.59,8.99C100.19,29.73,90.73,22.89,78.89,25.05z"/>
	<path d="M689.83,198.68c13.37,12.44,8.45,10.29,30.18,14.38c-4.57,2.91-14.38,1.41-21.87-3.48
		C694.06,206.91,690.53,203.77,689.83,198.68z"/>
	<path d="M32.4,126.41c-7.58-12.17-15.61-24.08-21.35-37.28c0.38-0.21,0.76-0.42,1.14-0.63c7.12,12.43,14.23,24.85,21.35,37.28
		C33.16,125.99,32.78,126.2,32.4,126.41z"/>
	<path d="M284.16,31.26c9.28,3.13,15.96,9.66,22.28,16.68c-0.39,0.51-0.78,1.03-1.17,1.54c-7.35-5.74-14.7-11.47-22.04-17.21
		C283.53,31.94,283.84,31.6,284.16,31.26z"/>
	<path d="M338.13,51.34c-0.37-5.78,12.1-16.34,18.37-16.23C350.47,40.44,344.57,45.65,338.13,51.34z"/>
	<path d="M874.85,40.55c8,1.8,16.01,3.59,24.01,5.39c-0.15,0.73-0.3,1.46-0.45,2.19c-8.03-1.61-16.07-3.21-24.1-4.82
		C874.49,42.39,874.67,41.47,874.85,40.55z"/>
	<path d="M788.54,61.47c0.02-8.72,2.9-16.37,8.17-23.14c0.4,0.14,0.79,0.29,1.19,0.43c-2.73,7.7-5.46,15.4-8.19,23.09
		C789.32,61.72,788.93,61.6,788.54,61.47z"/>
	<path d="M134.3,28.71c-2.6,6.77-5.21,13.55-7.81,20.32c-0.42-0.16-0.83-0.32-1.25-0.48c1.42-7.3,2.94-14.55,7.5-20.68
		C133.26,28.15,133.78,28.43,134.3,28.71z"/>
	<path d="M656.48,65.95c-2.97,5.8-5.94,11.6-8.92,17.4c-0.55-0.28-1.1-0.55-1.65-0.83c1.54-6.51,4.94-12.13,8.66-17.59
		C655.2,65.28,655.84,65.61,656.48,65.95z"/>
	<path d="M604.05,56.36c-5.62,2.77-11.53,5.69-17.38,8.58C588.45,58.54,598.56,53.77,604.05,56.36z"/>
	<path d="M489.23,28.57c-2.57,6.76-5.13,13.52-7.7,20.28c-0.43-0.16-0.85-0.32-1.28-0.48c1.39-7.2,2.92-14.35,7.33-20.42
		C488.13,28.16,488.68,28.36,489.23,28.57z"/>
	<path d="M328.33,103.2c-6.33-4.86-12.37-9.5-18-13.82C315.34,88.38,326.89,96.6,328.33,103.2z"/>
	<path d="M691.27,48.32c1.52-7.16,2.93-14.37,7.45-20.38c0.53,0.2,1.06,0.4,1.59,0.6c-2.54,6.75-5.08,13.49-7.62,20.24
		C692.21,48.62,691.74,48.47,691.27,48.32z"/>
	<path d="M221.16,43.39c3.07-2.48,5.99-5.17,9.26-7.35c1.47-0.98,3.62-0.95,5.46-1.37c0.08,0.37,0.16,0.75,0.24,1.12
		c-2.91,1.86-6.1,3.4-8.66,5.66c-2.41,2.13-4.15,5.02-6.18,7.57c-0.62-0.5-1.23-0.99-1.85-1.49c0.6-1.41,1.21-2.81,1.81-4.22
		C221.24,43.31,221.16,43.39,221.16,43.39z"/>
	<path d="M12.82,71.62c1.85,6.2,3.7,12.39,5.55,18.59c-0.49,0.14-0.98,0.28-1.46,0.42c-3.07-5.84-6.41-11.61-5.44-18.66
		C11.91,71.85,12.37,71.74,12.82,71.62z"/>
	<path d="M437.15,222.23c5.83,2.5,10.86,7.98,18.03,3.26c0.11,0.54,0.22,1.09,0.32,1.63c-2.49,0.88-4.99,2.55-7.45,2.48
		C443.23,229.46,439.3,227.04,437.15,222.23z"/>
	<path d="M881.77,35.87c4.46,1.28,8.93,2.55,14.56,4.16C890.83,41.83,884.15,40.17,881.77,35.87z"/>
	<path d="M221.24,43.31c-0.61-1.56-2.19-3.79-1.65-4.58c2.27-3.32,5.16-6.21,8.57-8.5c-2.33,4.38-4.67,8.77-7,13.15
		C221.16,43.39,221.24,43.31,221.24,43.31z"/>
	<path d="M338.79,39.82c3.45-2.7,6.91-5.41,10.36-8.11c0.44,0.52,0.88,1.05,1.31,1.57c-3.35,2.81-6.71,5.61-10.06,8.42
		C339.87,41.07,339.33,40.44,338.79,39.82z"/>
	<path d="M321.4,89.9c-3.88-1.24-7.77-2.47-11.65-3.71c0.11-0.39,0.21-0.78,0.32-1.16c4.32-0.42,8.19,0.85,11.77,3.27
		C321.69,88.84,321.55,89.37,321.4,89.9z"/>
	<path d="M675.52,133.42c-3.64,2.75-7.27,5.49-10.91,8.24c-0.34-0.47-0.69-0.95-1.03-1.42c3.71-2.67,7.41-5.34,11.12-8
		C674.98,132.63,675.25,133.03,675.52,133.42z"/>
	<path d="M457.3,150.12c-2.11-2.33-4.22-4.67-6.34-7c0.42-0.41,0.85-0.82,1.27-1.23c2.16,2.28,4.32,4.56,6.47,6.83
		C458.24,149.19,457.77,149.65,457.3,150.12z"/>
	<path class="st0" d="M453.11,168.88c-4.94,7.44-9.69,14.61-14.45,21.77c-1.44,2.16-3.01,1.76-4.43,0.05
		c-7.16-8.65-14.36-17.26-21.37-26.02c-5.55-6.93-10.84-14.06-17.16-20.68c0.53,7.48,0.94,14.97,1.63,22.43
		c0.44,4.68,1.45,9.31,1.88,13.99c0.11,1.15-0.75,3.14-1.66,3.51c-7.85,3.19-15.79,6.18-23.79,8.96c-0.63,0.22-2.68-1.42-2.83-2.38
		c-2.32-15.46-4.35-30.96-6.64-46.42c-1.55-10.51-3.42-20.98-5.11-31.47c-0.98-6.08-1.89-12.17-2.9-18.65
		c-2.74,1.51-5.31,3.04-7.98,4.37c-2.35,1.18-4.05,0.89-4.42-2.26c-0.82-6.93-2-13.82-2.57-20.76c-0.15-1.83,0.92-4.19,2.19-5.65
		c8.63-10,19.66-16.29,31.94-20.97c13.16-5.01,26.61-6.24,40.29-4.21c18.99,2.82,26.94,14.83,23.75,33.76
		c-3.06,18.09-13.5,31.88-25.52,44.81c-4.23,4.55-4.38,5.3-0.06,9.61c9.9,9.86,19.91,19.62,30.01,29.27
		C446.42,164.33,449.45,166.15,453.11,168.88z M383.45,84.07c2.01,9.84,3.74,18.59,5.71,27.29c0.14,0.62,2.67,1.52,3.1,1.14
		c6.43-5.51,13.04-10.87,14.73-20c1.12-6.07-0.85-11.75-6.14-14.88c-4.99-2.96-9.77-1.41-14.01,1.63
		C385.21,80.43,384.37,82.71,383.45,84.07z"/>
	<path class="st0" d="M445.17,63.39c7.32,5.12,8.18,12.52,7.05,19.74c-1.09,6.95-3.83,13.67-6.17,20.38
		c-0.61,1.76-1.07,5.03-4.58,3.4c-3.47-1.62-5.17-5.59-4.11-8.5c2.22-6.07,4.66-12.12,6.12-18.39
		C444.69,74.83,444.62,69.35,445.17,63.39z"/>
	<path class="st0" d="M876.51,185.51c2.45-22.94,4.67-45.02,2.63-67.35c-9.88,12.39-15.35,27.02-21.76,42.15
		c-5.81-11.1-11.02-21.07-16.24-31.05c-0.42,0.01-0.85,0.02-1.27,0.03c-0.53,2.38-1.32,4.73-1.54,7.14
		c-1.27,13.78-2.4,27.57-3.58,41.36c-0.48,5.67-1.57,6.52-7.11,5.74c-5.87-0.82-11.75-1.65-17.64-2.27
		c-2.97-0.31-4.22-1.39-4.04-4.6c0.97-17.43,1.63-34.89,2.65-52.32c0.71-12.14,1.79-24.27,2.77-36.39c0.23-2.87,0.42-5.82,1.25-8.54
		c0.49-1.61,1.91-3.56,3.4-4.15c8.05-3.18,16.32-5.79,24.35-8.99c3.78-1.5,5.83-0.35,7.17,3c2.88,7.17,5.66,14.38,8.53,21.56
		c0.59,1.48,1.4,2.87,2.7,5.48c2-3.19,3.69-5.29,4.73-7.67c2.74-6.25,5.41-12.55,7.69-18.98c1.53-4.32,3.97-4.99,8.06-3.81
		c7.59,2.19,15.23,4.3,22.96,5.84c4.52,0.9,6.25,2.66,6.22,7.45c-0.14,21.75,0.06,43.51,0.21,65.27c0.05,7.9,0.44,15.81,0.3,23.71
		c-0.03,1.53-1.47,3.78-2.85,4.39c-5.38,2.41-11.07,4.14-16.5,6.44C885.45,180.72,881.52,182.98,876.51,185.51z"/>
	<path class="st0" d="M842.84,60.81c-5.25,1.91-10.45,3.79-15.65,5.69c-4.4,1.6-8.8,3.24-13.21,4.81c-1.14,0.41-2.6,1.19-3.47,0.81
		c-1.63-0.73-3.11-2.05-4.21-3.47c-0.22-0.28,1.29-2.65,2.4-3.1c8.97-3.68,18.01-7.18,27.07-10.64
		C838.75,53.76,839.94,54.78,842.84,60.81z"/>
	<path class="st0" d="M869.02,52.6c10,2.77,19.27,5.1,28.35,8.01c2.42,0.78,4.26,3.34,6.37,5.08c-0.28,0.56-0.56,1.11-0.83,1.67
		c-4.34-0.89-8.71-1.66-13.01-2.71c-3.83-0.93-7.58-2.17-11.36-3.27C874.28,60.13,870.96,57.81,869.02,52.6z"/>
	<path class="st0" d="M870.2,143.89c1.65,2.63,6.3,3.49,3.94,9.78c-2.24-3.55-3.9-6.18-5.55-8.8
		C869.12,144.55,869.66,144.22,870.2,143.89z"/>
	<path class="st0" d="M28.93,163.31c3.68,3.49,6.44,6.55,9.63,9.04c7.92,6.2,19.13,2.22,22.55-7.3c1.66-4.63,1.23-8.63-0.96-12.57
		c-7.22-12.99-14.89-25.74-21.78-38.9c-4.48-8.56-8.35-17.51-11.67-26.6c-2.57-7.04,0.48-13.39,4.98-18.96
		c1.05-1.3,2.49-2.34,3.31-3.75c6.82-11.79,24.9-14.31,35.45-10.89c6.47,2.1,12.88,4.46,19.12,7.15c1.59,0.68,3.61,3.23,3.43,4.67
		c-1.02,8.07-2.64,16.05-3.98,23.59c-4.42-0.77-8.46-2.07-12.48-1.97c-2.8,0.07-6.04,1.47-8.24,3.29
		c-5.03,4.16-5.19,7.15-1.96,13.71c9.18,18.66,18.93,37.08,27.33,56.09c5.06,11.47,7.21,24.09-2.81,34.53
		c-7.62,7.93-17.42,11.48-28.62,12.04c-16.91,0.86-29.16-7.75-40.64-18.41c-2.06-1.91-2.66-4.18-1.23-6.99
		C23.35,175.21,26.09,169.23,28.93,163.31z"/>
	<path class="st0" d="M625.9,120.41c13.56-6.97,21.3-19.79,33.67-28.29c2.99,5.9,5.93,11.3,8.36,16.93c0.39,0.9-1.24,3.26-2.5,4.16
		c-8.5,6.13-17.14,12.05-25.75,18.02c-4.54,3.15-4.68,3.53-1.13,7.53c9.99,11.27,20.06,22.46,30.06,33.71
		c1.9,2.13,3.64,4.4,5.43,6.58c-6.29,5.75-12.24,11.3-18.33,16.69c-2.47,2.19-3.73,0.12-4.89-1.82
		c-5.81-9.79-11.67-19.56-17.44-29.38c-2-3.4-3.7-6.98-5.74-10.36c-0.96-1.59-2.39-2.9-4.45-5.34c-0.92,4.6-1.68,7.88-2.23,11.21
		c-1.15,6.9-2.41,13.79-3.17,20.73c-0.36,3.31-1.54,4.54-4.8,4.44c-5.63-0.19-11.27-0.3-16.89-0.1c-2.97,0.11-3.76-1.28-3.76-3.75
		c0.01-5.47-0.08-10.94,0.09-16.4c0.82-25.82,1.74-51.63,2.58-77.45c0.2-6.07,1.24-7.1,7.24-7.15c6.83-0.05,13.67-0.14,20.49-0.48
		c3.63-0.18,4.87,1.08,4.58,4.72c-0.82,10.28-1.42,20.58-2.02,30.87C625.2,116.91,625.63,118.36,625.9,120.41z"/>
	<path class="st0" d="M579.14,193.7c0-3.49,0.08-6.15-0.01-8.81c-0.69-20.24-0.05-40.39,2.73-60.49c1.27-9.15,1.55-18.43,2.31-27.64
		c0.32-3.94,1.52-7.4,6.48-9.74c0,2.83,0.05,5.12-0.01,7.41c-0.67,27.34-1.4,54.69-2.02,82.03
		C588.45,183.93,585.97,189.03,579.14,193.7z"/>
	<path class="st0" d="M126.12,144.21c-0.2-21.9,2.86-43.43,9-64.35c3.08-10.49,6.94-21.11,17.66-27.2
		c10.84-6.16,26.47-4.49,31.99,10.15c5.88,15.57,8.33,31.46,7.42,47.76c-0.92,16.33-2.3,32.76-5.32,48.8
		c-2.02,10.71-5.87,21.61-11.33,31.03c-10.37,17.89-32.27,11.8-40.72-0.78c-7.61-11.32-8.28-24.52-8.68-37.64
		C126.06,149.38,126.12,146.79,126.12,144.21z M168.67,119.55c-0.32-2.11-0.92-6.29-1.62-10.45c-0.57-3.37-1.49-7.67-5.44-7.03
		c-2.32,0.38-4.97,4.25-5.82,7.05c-3.53,11.69-4.98,23.75-3.94,35.96c0.2,2.38,1.57,5.86,3.36,6.65c3.27,1.43,5.25-1.73,6.95-4.37
		C167.22,139.51,168.2,130.69,168.67,119.55z"/>
	<path class="st0" d="M196.4,84.08c-2.94-8.74-5.37-17.04-8.5-25.06c-3.75-9.62-11.9-13.18-21.56-14.16
		c-0.57-0.06-1.14-0.24-1.76-0.38c2.44-4,8.99-7.26,15.51-7.83c10.76-0.94,18.35,3.69,21.82,13.99c2.07,6.16,3.29,12.6,4.98,18.9
		c0.86,3.23-0.25,5.47-2.81,7.49C201.36,79.18,198.95,81.7,196.4,84.08z"/>
	<path class="st0" d="M692.12,144.8c-0.25-22.21,2.87-44.04,9.12-65.25c3.17-10.77,7.23-21.66,18.65-27.47
		c11-5.59,23.76-3.49,28.66,6.61c3.72,7.67,6.4,16.13,7.95,24.53c3.97,21.49,1.21,42.97-1.56,64.39
		c-1.76,13.64-5.31,26.74-11.11,39.21c-3.96,8.51-10.36,14.2-19.9,14.46c-9.82,0.27-18.06-3.78-23.48-12.33
		c-7.24-11.41-7.86-24.35-8.32-37.3C692.05,149.36,692.12,147.08,692.12,144.8z M735.17,121.03c-0.89-4.9-1.47-9.9-2.85-14.66
		c-0.53-1.83-2.77-4.19-4.42-4.36c-1.48-0.15-3.74,2.1-4.74,3.82c-1.34,2.3-2,5.07-2.58,7.72c-2.46,11.16-4.03,22.44-2.41,33.87
		c0.23,1.65,1.72,3.98,3.09,4.36c1.43,0.4,3.63-0.88,5.08-1.97c1.26-0.95,2.08-2.58,2.86-4.04
		C733.34,138.07,734.48,129.71,735.17,121.03z"/>
	<path class="st0" d="M730.44,43.94c12.33-12.92,32.01-9.02,37.73,7.42c2.04,5.85,3.16,12.02,4.74,18.03
		c0.83,3.16-0.08,5.5-2.71,7.54c-2.72,2.12-5.11,4.66-8.09,7.44c-1.85-6.47-3.6-12.36-5.22-18.28
		c-3.56-13.04-11.71-20.55-25.49-21.42C731.17,44.65,730.94,44.33,730.44,43.94z"/>
	<path class="st0" d="M480.3,144.67c0.5-22.14,3.64-43.82,9.81-64.88c3.07-10.46,6.92-21.1,17.69-27.17
		c10.86-6.12,26.49-4.35,31.96,10.24c5.85,15.59,8.3,31.47,7.39,47.76c-0.92,16.33-2.33,32.76-5.32,48.81
		c-1.97,10.57-6.16,21.04-11.07,30.67c-6.24,12.25-21.09,14.56-33.22,6.96c-8.97-5.62-12.51-14.32-14.12-23.9
		C481.84,163.75,481.3,154.17,480.3,144.67z M523.67,118.51c-0.49-2.63-1.07-7.63-2.48-12.39c-0.53-1.79-2.79-3.68-4.65-4.23
		c-1.03-0.3-3.11,1.87-4.23,3.31c-0.98,1.26-1.56,3-1.83,4.61c-1.45,8.67-3.01,17.33-3.97,26.05c-0.44,4.01,0.06,8.21,0.7,12.23
		c0.67,4.26,4.08,5.33,7.3,2.52c1.23-1.07,2.2-2.51,3.05-3.92C522.33,138.75,523.32,129.9,523.67,118.51z"/>
	<path class="st0" d="M519.63,44.12c5.81-8.14,23.16-10.4,30.3-3.64c9.16,8.67,10.58,20.48,12.17,32.11
		c0.1,0.75-0.44,1.83-1.03,2.41c-3.13,3.05-6.37,5.99-10.01,9.38c-1.86-6.5-3.61-12.39-5.23-18.32
		c-3.56-13.05-11.74-20.53-25.51-21.39C520.07,44.65,519.85,44.32,519.63,44.12z"/>
	<path class="st0" d="M274.6,180.09c-7.25-1.7-13.72-2.75-19.87-4.79c-5-1.65-5.79-6.79-6.38-11.26
		c-2.89-21.96-5.41-43.96-8.37-65.9c-1.28-9.47-3.42-18.81-4.87-28.26c-0.23-1.51,0.64-3.85,1.81-4.8c7.2-5.85,16.16-7.5,24.87-9.41
		c6.79-1.49,13.65-2.55,20.68-0.25c13.67,4.47,21.33,21.56,15.13,34.49c-0.46,0.96-1.02,1.86-1.5,2.81
		c-2.47,4.88-2.08,5.55,3.46,6.02c12.38,1.05,20.29,10.03,23.94,21.94c6.24,20.35-12.28,49.82-31.56,54.6
		C285.96,176.75,280.06,178.56,274.6,180.09z M279.44,156.22c9.05,0.13,21.12-11.29,21.33-20.21c0.15-6.16-3.8-11.31-9.92-11.37
		c-4.35-0.04-8.74,1.53-13.04,2.65c-0.8,0.21-1.87,1.77-1.78,2.58C277.03,138.54,278.24,147.19,279.44,156.22z M271.07,97.32
		c3.25-2.09,6.12-3.49,8.44-5.53c4.65-4.09,4.17-12.8-1.11-15.74c-2.15-1.2-5.47-0.9-8.09-0.41c-1.22,0.23-3.07,2.69-2.89,3.89
		C268.23,85.15,269.64,90.67,271.07,97.32z"/>
	<path class="st0" d="M224.43,64.14c4.16,0.44,6.27,2.1,6.83,5.63c1.81,11.36,3.85,22.69,5.46,34.08
		c1.19,8.41,1.86,16.89,2.73,25.34c0.3,2.94,0.48,5.89,0.74,9.04c-8.47-2.17-8.95-3.23-9.67-12.78c-0.84-11.02-2.13-22.01-3.31-33
		c-0.84-7.84-1.87-15.65-2.74-23.48C224.29,67.51,224.43,66.01,224.43,64.14z"/>
	<path d="M383.45,84.07c0.92-1.36,1.76-3.64,3.39-4.81c4.24-3.04,9.01-4.59,14.01-1.63c5.29,3.13,7.26,8.81,6.14,14.88
		c-1.69,9.13-8.3,14.49-14.73,20c-0.44,0.37-2.96-0.52-3.1-1.14C387.19,102.66,385.46,93.91,383.45,84.07z"/>
	<path d="M168.67,119.55c-0.47,11.14-1.46,19.96-6.51,27.81c-1.7,2.64-3.68,5.8-6.95,4.37c-1.79-0.78-3.16-4.27-3.36-6.65
		c-1.04-12.2,0.41-24.27,3.94-35.96c0.85-2.8,3.5-6.68,5.82-7.05c3.94-0.64,4.86,3.66,5.44,7.03
		C167.76,113.26,168.35,117.44,168.67,119.55z M162.61,129.41c-2.72,3-8.21,4.32-6.24,10.12
		C159.13,136.57,164.16,135.1,162.61,129.41z M157.39,126.67c6.6-3.7,7.25-4.69,5.3-8.85C160.94,120.93,155.95,121.28,157.39,126.67
		z"/>
	<path d="M735.17,121.03c-0.69,8.67-1.83,17.04-5.96,24.73c-0.78,1.46-1.6,3.09-2.86,4.04c-1.45,1.09-3.65,2.37-5.08,1.97
		c-1.37-0.38-2.85-2.72-3.09-4.36c-1.62-11.43-0.05-22.7,2.41-33.87c0.58-2.65,1.25-5.42,2.58-7.72c1-1.72,3.26-3.97,4.74-3.82
		c1.66,0.17,3.9,2.53,4.42,4.36C733.7,111.13,734.28,116.13,735.17,121.03z M722,140.79c3.3-4.14,8.27-5.87,7.08-12.6
		C725.84,132.23,720.61,133.66,722,140.79z M723.76,127.19c2.66-3.08,7.4-3.77,5.3-8.71C727.07,120.91,721.95,121.18,723.76,127.19z
		"/>
	<path d="M523.67,118.51c-0.35,11.38-1.34,20.24-6.11,28.19c-0.85,1.41-1.82,2.85-3.05,3.92c-3.23,2.82-6.63,1.74-7.3-2.52
		c-0.64-4.02-1.15-8.22-0.7-12.23c0.97-8.72,2.53-17.39,3.97-26.05c0.27-1.61,0.85-3.35,1.83-4.61c1.12-1.44,3.2-3.61,4.23-3.31
		c1.85,0.54,4.11,2.44,4.65,4.23C522.6,110.88,523.18,115.88,523.67,118.51z M518.12,128.93c-7.56,5.37-8.4,6.77-6.52,11.07
		C514.24,136.64,519.16,134.98,518.12,128.93z M512.46,127.36c2.92-3.23,7.57-3.92,5.97-9.77
		C515.63,120.63,511.3,121.4,512.46,127.36z"/>
	<path d="M279.44,156.22c-1.2-9.02-2.41-17.68-3.41-26.35c-0.09-0.82,0.98-2.37,1.78-2.58c4.3-1.12,8.7-2.69,13.04-2.65
		c6.12,0.06,10.07,5.21,9.92,11.37C300.56,144.93,288.49,156.34,279.44,156.22z M283.86,151.99c2.59-1.97,4.92-3.19,6.49-5.06
		c3.08-3.66-1.4-5.09-2.87-7.26c-0.28-0.41-3.27,0.21-4.16,1.16C280.2,144.12,282.39,147.53,283.86,151.99z"/>
	<path d="M271.07,97.32c-1.43-6.65-2.85-12.18-3.66-17.79c-0.17-1.2,1.67-3.66,2.89-3.89c2.62-0.49,5.94-0.79,8.09,0.41
		c5.28,2.95,5.76,11.65,1.11,15.74C277.2,93.84,274.32,95.23,271.07,97.32z"/>
	<g>
		<path class="st1" d="M801.67,175.88c-7.37-5.4-8.87-12-8.02-19.95c2-18.69,3.63-37.42,5.3-56.15c0.86-9.65,1.5-19.32,2.33-30.03
			c4.21,4.42,7.27,7.63,6.78,13.54c-1.64,19.97-2.71,39.99-3.97,59.99c-0.56,8.94-1.04,17.88-1.61,26.81
			C802.38,171.84,802.01,173.56,801.67,175.88z"/>
		<path class="st1" d="M871.83,184.4c-4.3-3.2-7.02-6.11-6.27-11.29c0.74-5.08,0.88-10.24,1.38-15.35c0.15-1.54,0.64-3.05,1.08-5.04
			c4.5,2.81,7.87,5,6.63,10.77c-1.14,5.28-1.09,10.81-1.66,16.22C872.84,181.12,872.32,182.47,871.83,184.4z"/>
		<path class="st1" d="M859.64,86.4c-2.42-5.09-4.61-9.05-1.78-14.23c2.73-4.99,4.5-10.51,6.71-15.86c5.01,2.8,5.97,5.28,4.15,9.59
			c-2.18,5.18-4.3,10.37-6.51,15.54C861.59,82.93,860.74,84.32,859.64,86.4z"/>
		<path class="st1" d="M773.67,80.21c2.07,11.32-0.69,17.1-10.06,21.68C760.44,92.21,763.29,85.92,773.67,80.21z"/>
		<path class="st1" d="M763.76,118.43c-1.43-9.37,1.35-14.22,9.54-17.14C774.63,108.46,771.37,114.47,763.76,118.43z"/>
		<path class="st1" d="M759.62,146.14c0.62-6.78,5.63-9.46,9.31-13.58C770.24,137.57,766.13,143.47,759.62,146.14z"/>
		<path class="st1" d="M762.03,132.29c-0.68-6.93,5.04-9.05,8.14-13.36C771.52,123.53,767.79,129.5,762.03,132.29z"/>
		<path class="st1" d="M754.92,164.24c3.15-2.49,6.31-4.97,9.74-7.68c-1.41,4.44-5.56,6.1-8.33,8.97
			C755.86,165.09,755.39,164.66,754.92,164.24z"/>
		<path class="st1" d="M722,140.79c-1.39-7.13,3.85-8.56,7.08-12.6C730.27,134.92,725.3,136.65,722,140.79z"/>
		<path class="st1" d="M723.76,127.19c-1.81-6.01,3.3-6.28,5.3-8.71C731.16,123.42,726.43,124.11,723.76,127.19z"/>
	</g>
	<g>
		<g>
			<path class="st1" d="M435.1,105.18c1.69,2.27,3.37,4.54,5.26,7.09c-4.08,2.53-5.4-1.16-7.17-2.72c-0.68-0.6,0.08-2.83,0.18-4.32
				C433.96,105.21,434.53,105.2,435.1,105.18z"/>
			<path class="st1" d="M429.47,124.75c-1.37-1.21-2.89-2.3-4.04-3.69c-0.63-0.76-0.61-2.05-0.89-3.1c1.2,0.1,2.93-0.26,3.49,0.39
				c1.31,1.53,2.05,3.53,3.02,5.34C430.52,124.05,429.99,124.4,429.47,124.75z"/>
			<path class="st1" d="M435.48,117.59c-4.87-0.55-6.47-2.37-5.82-6.37C431.92,113.69,433.7,115.64,435.48,117.59z"/>
			<path class="st1" d="M63.33,46.92c6.74-4.79,34.15-2.95,38.92,4.87c-0.51,0.74-1.04,1.64-1.69,2.43
				c-4.25,5.19-4.04,4.66-10.12,2.09c-7.8-3.3-15.99-5.66-24.02-8.42C65.48,47.57,64.53,47.3,63.33,46.92z"/>
			<path class="st1" d="M54.48,166.71c-7.09,6.65-19.32,3.21-20.85-5.81c-0.38-2.21,3.25-5.1,5.03-7.68
				c0.79,0.8,1.83,1.47,2.32,2.43C43.79,161.14,47.83,165.1,54.48,166.71z"/>
			<g>
				<path class="st1" d="M96.16,153.04c-2.43-5.02-5.26-9.91-7.06-15.15c-0.53-1.54,1.87-4.09,2.92-6.18
					c0.56,0.04,1.12,0.08,1.68,0.11c2.24,5.18,4.82,10.25,6.51,15.61c0.47,1.49-1.66,3.81-2.6,5.75
					C97.13,153.14,96.65,153.09,96.16,153.04z"/>
			</g>
			<path class="st1" d="M87.41,122.43c3.42,5.12,3.31,6.29-0.64,9.49C81.8,127.33,81.91,124.84,87.41,122.43z"/>
			<path class="st1" d="M80.92,121.3c-2.43-2.11-3.56-4.34-0.64-6.72c0.6-0.49,2.57-0.46,2.83-0.03
				C84.84,117.47,83.52,119.6,80.92,121.3z"/>
			<path class="st1" d="M93.66,83.12c1.35-2.31,2.71-4.62,4.06-6.93c0.67,0.38,1.33,0.76,2,1.14c-1.37,2.24-2.75,4.49-4.12,6.73
				C94.95,83.75,94.3,83.44,93.66,83.12z"/>
			<path class="st1" d="M206.68,79.71c3.1,9.24,0.62,14.96-9.36,21.62C192.97,93.59,196.59,85.25,206.68,79.71z"/>
			<path class="st1" d="M197.26,117.51c-2.13-8.83,0.41-13.46,9.23-16.81C207.97,107.74,204.38,114.27,197.26,117.51z"/>
			<path class="st1" d="M203.11,133.23c0.46,6.57-4.23,9.59-9.41,13.92C193.85,139.46,199.22,136.87,203.11,133.23z"/>
			<path class="st1" d="M204.73,118.35c0.46,5.82-3.69,11.96-8.83,13.79C195.35,125.31,201.2,123,204.73,118.35z"/>
			<path class="st1" d="M187.86,165.1c3.88-3.67,6.83-6.46,10.1-9.56C197.83,159.63,193.43,164.09,187.86,165.1z"/>
			<path class="st1" d="M552.32,102.07c-2.33-11.49-0.4-15.63,9.86-21.72C565.64,89.01,562.13,96.95,552.32,102.07z"/>
			<path class="st1" d="M552.52,117.96c-1.06-9.43,0.72-12.59,9.47-16.79C565.45,106.79,558.28,116.68,552.52,117.96z"/>
			<path class="st1" d="M558.1,132.24c0.82,5.57-2.64,10.55-9.38,14.09C548.9,139.38,554.22,136.75,558.1,132.24z"/>
			<path class="st1" d="M559.74,119.27c0.16,5.11-3.56,10.59-8.39,12.79C550.69,127,552.02,124.92,559.74,119.27z"/>
			<path class="st1" d="M553.95,157.34c-2.82,2.76-5.64,5.53-8.46,8.29c-0.43-0.38-0.86-0.75-1.29-1.13c1.61-3.8,5.3-5.82,8.17-8.55
				C552.9,156.42,553.42,156.88,553.95,157.34z"/>
			<path class="st1" d="M259.17,51.3c-2.02,0.8-4.03,1.59-6.05,2.4c-6.14,2.47-12.35,4.77-18.38,7.47
				c-3.89,1.74-6.13-0.24-9.26-2.86c10.76-6.23,21.63-8.72,33.16-8.58C258.82,50.25,258.99,50.78,259.17,51.3z"/>
			<path class="st1" d="M241.25,153.66c-7.25-2.94-8.61-5.18-7.74-12.4C239.43,141.03,242.73,145.9,241.25,153.66z"/>
			<path class="st1" d="M236.11,154.64c2.97,2.22,7.18,2.97,7.33,7.98C237.07,161.91,235.17,159.83,236.11,154.64z"/>
			<path class="st1" d="M162.61,129.41c1.55,5.69-3.47,7.16-6.24,10.12C154.4,133.72,159.89,132.41,162.61,129.41z"/>
			<path class="st1" d="M157.39,126.67c-1.44-5.39,3.55-5.74,5.3-8.85C164.64,121.98,163.99,122.97,157.39,126.67z"/>
			<path class="st1" d="M518.12,128.93c1.04,6.05-3.87,7.71-6.52,11.07C509.72,135.69,510.55,134.29,518.12,128.93z"/>
			<path class="st1" d="M512.46,127.36c-1.16-5.96,3.17-6.73,5.97-9.77C520.03,123.44,515.38,124.13,512.46,127.36z"/>
			<path class="st1" d="M283.86,151.99c-1.47-4.46-3.65-7.88-0.54-11.17c0.89-0.95,3.89-1.57,4.16-1.16
				c1.46,2.17,5.94,3.6,2.87,7.26C288.78,148.8,286.44,150.02,283.86,151.99z"/>
			<path class="st1" d="M616.38,186.36c0,0-0.45,6.8-5.18,9.74c-0.29,0.19-0.6,0.35-0.92,0.5c-0.3,0.1-0.62,0.13-0.95,0.1
				c-1.63-0.15-3.13-0.26-4.48-0.34c-1.64-0.11-3.07-0.16-4.24-0.2c-0.5-0.01-0.99-0.03-1.45-0.03c0,0-10.92-1.06-15.67,1.48
				c0,0,0.77-11.73,11.01-11.06c0,0,3.49,0.27,5.85,0.53C600.34,187.08,611.63,188.9,616.38,186.36z"/>
			<path class="st1" d="M624.61,163.66c5.89-0.81,21.64,30.04,22.25,36.87C640.96,202.46,626.13,168.84,624.61,163.66z"/>
		</g>
	</g>
</g>
</svg>
