<?xml version="1.0" encoding="utf-8"?>
<!-- Generator: Adobe Illustrator 27.3.1, SVG Export Plug-In . SVG Version: 6.00 Build 0)  -->
<svg version="1.1" id="Layer_1" xmlns="http://www.w3.org/2000/svg" xmlns:xlink="http://www.w3.org/1999/xlink" x="0px" y="0px"
	 viewBox="0 0 1080 1080" style="enable-background:new 0 0 1080 1080;" xml:space="preserve">
<style type="text/css">
	.st0{fill:#C70039;}
	.st1{fill:#FFFFFF;}
</style>
<circle class="st0" cx="531.17" cy="539.3" r="397"/>
<g>
	<path d="M623.32,446.55c4.58-5.29,10.2-10.8,14.64-17.13c11.4-16.25,26.29-31.52,32.42-49.67c8.97-26.57,11.95-55.24,16.44-83.19
		c0.83-5.15-1.76-14.45-5.41-16.13c-23.53-10.89-47.05-25.59-71.95-29.02c-83.43-11.5-150.87,20.05-201.88,86.37
		c-24.63,32.01-31.47,67.46-12.2,104.53c26.55,51.08,54.26,101.56,81.59,152.23c10.21,18.91,21.27,37.39,30.9,56.59
		c3.11,6.19,2.89,14.06,4.54,23.04c-38.29-6.52-44.81-38.75-60.74-62.56c-3.2,2.1-5.63,3.19-7.43,4.93
		c-34.3,33.29-60.98,71.35-77.8,116.65c-5.26,14.16-4.01,23.63,5.54,33.91c37.44,40.3,79.96,69.65,137.49,73.91
		c75.07,5.55,127.93-33.63,155.46-88.4c32.31-64.27,17.63-126.33-14.93-186.37c-18.22-33.59-35.98-67.44-53.15-101.58
		c-4.69-9.31-6.51-20.07-9.65-30.16c1.6-1.49,3.2-2.99,4.8-4.48C601.88,435.23,611.75,440.44,623.32,446.55z M641.28,403.49
		c-2.23-1.08-4.46-2.16-6.68-3.24c4.67-7.98,9.35-15.96,14.02-23.93c2.3,1.3,4.6,2.61,6.89,3.92
		C650.77,387.99,646.02,395.74,641.28,403.49z M664.25,292.05c-1.77,2.57-3.59,5.66-5.84,8.39c-14.69,17.93-13.95,16.11-34.94,7.22
		c-26.93-11.4-55.23-19.56-82.94-29.08c-3.24-1.12-6.53-2.06-10.68-3.36C553.14,258.69,647.77,265.03,664.25,292.05z M444.69,642.31
		c2.73,2.77,6.34,5.09,8.02,8.39c9.68,18.93,23.65,32.61,46.61,38.19c-24.5,22.95-66.71,11.09-71.99-20.06
		C426.03,661.19,438.54,651.21,444.69,642.31z M634.76,568.45c7.74,17.89,16.64,35.4,22.49,53.89c1.63,5.15-5.74,13.15-8.99,19.85
		c-1.67-0.17-3.35-0.34-5.02-0.5c-8.4-17.34-18.17-34.21-24.37-52.31c-1.82-5.33,6.44-14.12,10.09-21.32
		C630.89,568.19,632.82,568.32,634.76,568.45z M613.03,535.98c11.79,17.69,11.44,21.73-2.2,32.76
		C593.65,552.9,594.02,544.3,613.03,535.98z M588.39,508.89c2.07-1.68,8.85-1.58,9.75-0.08c6.01,10.03,1.44,17.38-7.53,23.28
		C582.2,524.79,578.31,517.11,588.39,508.89z M575.45,412.97c-9.67,0.24-20.84,5.07-28.44,11.36c-17.38,14.35-17.91,24.7-6.78,47.32
		c31.72,64.45,65.39,128.04,94.37,193.69c17.49,39.61,24.91,83.18-9.72,119.23c-26.3,27.38-60.14,39.63-98.83,41.59
		c-58.39,2.96-100.7-26.76-140.32-63.56c-7.12-6.6-9.19-14.45-4.25-24.14c10.32-20.22,19.79-40.88,29.6-61.33
		c12.72,12.05,22.23,22.61,33.25,31.23c27.37,21.41,66.06,7.66,77.87-25.21c5.73-15.99,4.24-29.8-3.33-43.43
		c-24.92-44.86-51.43-88.88-75.23-134.32c-15.48-29.56-28.85-60.48-40.29-91.84c-8.87-24.29,1.65-46.22,17.2-65.48
		c3.62-4.48,8.61-8.07,11.44-12.96c23.56-40.7,85.99-49.4,122.42-37.6c22.35,7.24,44.47,15.39,66.03,24.68
		c5.48,2.36,12.46,11.15,11.84,16.11c-3.51,27.85-9.14,55.44-13.75,81.45C603.28,417.11,589.31,412.63,575.45,412.97z"/>
	<path class="st1" d="M590.61,532.09c-8.41-7.3-12.3-14.98-2.22-23.2c2.07-1.68,8.85-1.58,9.75-0.08
		C604.15,518.84,599.58,526.19,590.61,532.09z"/>
	<path class="st1" d="M610.83,568.74c-17.18-15.84-16.81-24.44,2.2-32.76C624.82,553.67,624.47,557.71,610.83,568.74z"/>
	<path class="st1" d="M648.26,642.19c-1.67-0.17-3.35-0.34-5.02-0.5c-8.4-17.34-18.17-34.21-24.37-52.31
		c-1.82-5.33,6.44-14.12,10.09-21.32c1.93,0.13,3.86,0.26,5.8,0.39c7.74,17.89,16.64,35.4,22.49,53.89
		C658.88,627.49,651.51,635.49,648.26,642.19z"/>
	<path class="st1" d="M499.32,688.89c-24.5,22.95-66.71,11.09-71.99-20.06c-1.3-7.64,11.21-17.62,17.36-26.52
		c2.73,2.77,6.34,5.09,8.02,8.39C462.39,669.63,476.36,683.31,499.32,688.89z"/>
	<path class="st1" d="M664.25,292.05c-1.77,2.57-3.59,5.66-5.84,8.39c-14.69,17.93-13.95,16.11-34.94,7.22
		c-26.93-11.4-55.23-19.56-82.94-29.08c-3.24-1.12-6.53-2.06-10.68-3.36C553.14,258.69,647.77,265.03,664.25,292.05z"/>
	<path class="st1" d="M655.51,380.24c-4.74,7.75-9.49,15.5-14.23,23.25c-2.23-1.08-4.46-2.16-6.68-3.24
		c4.67-7.98,9.35-15.96,14.02-23.93C650.92,377.62,653.22,378.93,655.51,380.24z"/>
	<path class="st1" d="M411.08,677.12c12.71,12.06,22.23,22.61,33.25,31.23c27.37,21.41,66.06,7.66,77.87-25.21
		c5.74-15.98,4.24-29.79-3.33-43.42c-24.92-44.87-51.43-88.88-75.23-134.32c-15.48-29.56-28.85-60.48-40.29-91.84
		c-8.87-24.29,1.65-46.23,17.2-65.48c3.62-4.49,8.62-8.07,11.44-12.96c23.56-40.7,85.98-49.4,122.42-37.6
		c22.35,7.24,44.47,15.39,66.03,24.68c5.48,2.36,12.46,11.15,11.84,16.11c-3.51,27.85-9.13,55.44-13.74,81.45
		c-15.26-2.65-29.23-7.13-43.08-6.79c-9.68,0.24-20.84,5.07-28.45,11.36c-17.37,14.36-17.91,24.7-6.77,47.33
		c31.71,64.45,65.38,128.03,94.37,193.69c17.49,39.61,24.91,83.18-9.72,119.23c-26.3,27.38-60.14,39.63-98.83,41.59
		c-58.39,2.96-100.7-26.76-140.32-63.56c-7.12-6.61-9.19-14.45-4.25-24.14C391.8,718.23,401.28,697.58,411.08,677.12z"/>
</g>
</svg>
